<svg xmlns="http://www.w3.org/2000/svg" width="14" height="13" viewBox="0 0 14 13">
  <g id="Group_13916" data-name="Group 13916" transform="translate(9129 -20675)">
    <g id="Group_13915" data-name="Group 13915">
      <g id="Polygon_80" data-name="Polygon 80" transform="translate(-9129 20675)" fill="none">
        <path d="M6.12,1.635a1,1,0,0,1,1.761,0l5.326,9.891A1,1,0,0,1,12.326,13H1.674a1,1,0,0,1-.88-1.474Z" stroke="none"/>
        <path d="M 6.999997138977051 2.109265327453613 L 7 2.109259605407715 L 1.674220085144043 12 L 12.32577991485596 12 L 7 2.109270095825195 C 6.999999046325684 2.109268188476562 6.999998092651367 2.109267234802246 6.999997138977051 2.109265327453613 M 7 1.109259605407715 C 7.345842361450195 1.109259605407715 7.691685199737549 1.284560203552246 7.880469799041748 1.635160446166992 L 13.20625019073486 11.52589988708496 C 13.56499004364014 12.19213008880615 13.08246040344238 13 12.32577991485596 13 L 1.674220085144043 13 C 0.9175395965576172 13 0.4350099563598633 12.19213008880615 0.7937498092651367 11.52589988708496 L 6.119530200958252 1.635160446166992 C 6.308314800262451 1.284560203552246 6.654157638549805 1.109259605407715 7 1.109259605407715 Z" stroke="none" fill="red"/>
      </g>
      <text id="_" data-name="!" transform="translate(-9123 20685)" fill="red" font-size="5" font-family="SegoeUI-Bold, Segoe UI" font-weight="700"><tspan x="0" y="0">!</tspan></text>
    </g>
  </g>
</svg>
